<svg xmlns="http://www.w3.org/2000/svg" viewBox="0 0 156.39 156.39"><defs><style>.cls-1{fill:none;stroke:#262262;stroke-miterlimit:10;}.cls-2{fill:#262262;}.cls-3{fill:#00a8e1;}</style></defs><title>icon-certificate_1</title><g id="Layer_2" data-name="Layer 2"><g id="Layer_1-2" data-name="Layer 1"><rect class="cls-1" x="23.4" y="23.4" width="109.58" height="109.58" transform="translate(78.19 -32.39) rotate(45)"/><polygon class="cls-2" points="66.28 85.38 59.23 114.29 66.28 109.67 69.92 118.17 76.24 87.81 76.97 78.82 68.46 79.06 66.28 85.38"/><polygon class="cls-2" points="91.79 85.38 98.83 114.29 91.79 109.67 88.14 118.17 81.83 87.81 81.1 78.82 89.6 79.06 91.79 85.38"/><polygon class="cls-3" points="84.61 89.59 79.03 85.61 73.63 89.84 70.15 83.93 63.51 85.6 62.73 78.79 55.98 77.61 58.04 71.08 52.35 67.26 56.89 62.12 53.25 56.32 59.48 53.48 58.52 46.69 65.37 46.63 67.25 40.04 73.54 42.77 77.93 37.51 82.56 42.56 88.72 39.55 90.89 46.05 97.74 45.8 97.08 52.62 103.44 55.18 100.07 61.14 104.84 66.06 99.33 70.14 101.69 76.58 95 78.06 94.53 84.9 87.81 83.53 84.61 89.59"/></g></g></svg>