<svg xmlns="http://www.w3.org/2000/svg" viewBox="0 0 156.39 156.39"><defs><style>.cls-1{fill:#262262;}.cls-2{fill:#00a8e1;}.cls-3,.cls-4{fill:none;stroke:#262262;stroke-miterlimit:10;}.cls-3{stroke-linecap:round;stroke-width:2px;}</style></defs><title>icon-lightbulb</title><g id="Layer_2" data-name="Layer 2"><g id="Layer_1-2" data-name="Layer 1"><ellipse class="cls-1" cx="78.05" cy="99.22" rx="6.79" ry="11.02"/><path class="cls-2" d="M97.62,70.39A19.37,19.37,0,1,0,67.46,86.47c2.59,1.74,2,4.46,2.53,7.52.65,3.63,4.53,5,8.06,5,4,0,7.77-1.57,8.28-5.22.41-2.92-.25-5.45,2.25-7A19.35,19.35,0,0,0,97.62,70.39Z"/><path class="cls-3" d="M71.16,99.83s6.06,4.85,14,0"/><path class="cls-3" d="M71.5,104.21s5.77,4.62,13.3,0"/><path class="cls-1" d="M80.31,109.89a2.17,2.17,0,0,1-4.33,0C76,108.69,80.31,108.69,80.31,109.89Z"/><rect class="cls-4" x="23.4" y="23.4" width="109.58" height="109.58" transform="translate(78.19 -32.39) rotate(45)"/></g></g></svg>