<svg xmlns="http://www.w3.org/2000/svg" viewBox="0 0 156.39 156.39"><defs><style>.cls-1{fill:#262262;}.cls-2{fill:none;stroke:#262262;stroke-miterlimit:10;}</style></defs><title>icon-half_1</title><g id="Layer_2" data-name="Layer 2"><g id="Layer_1-2" data-name="Layer 1"><path class="cls-1" d="M54.5,52.47v-4H63V75H58.49V52.47Z"/><path class="cls-1" d="M83.16,46.51l-14.1,58.05H64.81l14.1-58Z"/><path class="cls-1" d="M92.49,92.61q3.67-4,3.67-7.43a4.88,4.88,0,0,0-1-3.24,3.91,3.91,0,0,0-3.22-1.21,4.14,4.14,0,0,0-3.46,1.49,7.38,7.38,0,0,0-1.32,4.24H83a10,10,0,0,1,2.81-7,9,9,0,0,1,6.49-2.41,8.58,8.58,0,0,1,6.09,2,7.37,7.37,0,0,1,2.2,5.67,11.36,11.36,0,0,1-1.79,5.87,24.34,24.34,0,0,1-4.54,5.48,37.48,37.48,0,0,1-5.68,4.31h12.61V104H82.72V100.8A56,56,0,0,0,92.49,92.61Z"/><rect class="cls-2" x="23.4" y="23.4" width="109.58" height="109.58" transform="translate(78.19 -32.39) rotate(45)"/></g></g></svg>