<svg xmlns="http://www.w3.org/2000/svg" viewBox="0 0 156.39 156.39"><defs><style>.cls-1{fill:none;stroke:#262262;stroke-miterlimit:10;}.cls-2{fill:#262262;}.cls-3{fill:#00a8e1;}</style></defs><title>icon-lifesaver_1</title><g id="Layer_2" data-name="Layer 2"><g id="Layer_1-2" data-name="Layer 1"><rect class="cls-1" x="23.4" y="23.4" width="109.58" height="109.58" transform="translate(78.19 -32.39) rotate(45)"/><path class="cls-2" d="M78.49,38.37a40.16,40.16,0,1,0,40.16,40.16A40.16,40.16,0,0,0,78.49,38.37Zm0,58.49A18.33,18.33,0,1,1,96.83,78.53,18.33,18.33,0,0,1,78.49,96.86Z"/><path class="cls-3" d="M118.65,78.53,96.6,78.19S97.16,89,87.3,94.61c2.37,6.77,9.53,19.61,9.53,19.61s7.1-2,15-13.23A37.64,37.64,0,0,0,118.65,78.53Z"/><path class="cls-3" d="M57.28,44.09,68.8,62.91s9.34-4.91,18.5-.46c4.44-5.63,11.81-18.39,11.81-18.39s-6.9-5.65-20.62-5.69C65.13,38.33,57.28,44.09,57.28,44.09Z"/><path class="cls-3" d="M56.53,112.5l12-18.5s-7.85-4.15-8.4-16.63C53.17,75.78,38.33,75,38.33,75a47.85,47.85,0,0,0,3.42,20.35C46.81,107.93,56.53,112.5,56.53,112.5Z"/></g></g></svg>