<svg xmlns="http://www.w3.org/2000/svg" viewBox="0 0 156.39 156.39"><defs><style>.cls-1{fill:none;stroke:#262262;stroke-miterlimit:10;}.cls-2{fill:#00a8e1;}.cls-3{fill:#262262;}</style></defs><title>icon-wetsuit_1</title><g id="Layer_2" data-name="Layer 2"><g id="Layer_1-2" data-name="Layer 1"><rect class="cls-1" x="23.4" y="23.4" width="109.58" height="109.58" transform="translate(78.19 -32.39) rotate(45)"/><path class="cls-2" d="M65.73,54.9a5.7,5.7,0,0,1,.81,1,22.19,22.19,0,0,1,3.21,16c-1.14,7.17-5.84,17.76-4.69,38,1,17.26,1.73,17.52,1.73,17.52S73.7,93.17,79.62,93.91,88,129.93,93,127.46c0,0,1.11-6.62,2-16C97.14,87,89.8,80.88,90.54,69.29s2.9-13.38,2.9-13.38a3.35,3.35,0,0,1,.65-.63c.62-.44,8.72-13.44,2.06-16.15s-7.15-.25-9.37-4.44a16.65,16.65,0,0,1-14.07,0s-.24,3-6.41,3.7S64.69,53.86,65.73,54.9Z"/><path class="cls-3" d="M96.22,39c-6.69-2.72-7.19-.25-9.41-4.46a16.7,16.7,0,0,1-14.13,0s-.24,3-6.44,3.72S59.06,45.17,54.6,59.78c0,0,2.72,4.21,7.18,3,.81-2.42,1.78-5.65,2.11-6.78a1.89,1.89,0,0,1,.65-1,1,1,0,0,1,1.18-.12l7.66-15.49,1.33.65-8,16.2c1.12,2.25,4.16,9,3,15.68-.28,1.62-.73,3.41-1.26,5.45.91,1,4,3.67,11,3.91a25,25,0,0,0,12.18-2.67,29.71,29.71,0,0,1-.81-8.67c.53-8.31,1.69-11.95,2.31-13.35L84.9,40l1.33-.65,7.86,15.89c.63-.45,1.56-.81,1.88.79.5,2.47,1.49,6.69,1.49,6.69s5.94.74,7.68-2.73C105.14,60,102.91,41.7,96.22,39Z"/><path class="cls-3" d="M80.3,82.78l-1,0C73,82.54,69.6,80.42,68,79a96.8,96.8,0,0,0-3,31.05c.93,17.14,1.74,17.59,1.74,17.59s6,2,8.67-1.49c0,0-1.74-32.95,4.21-32.21S84,126.39,84,126.39s4,3.75,9,1.28c0,0,1.12-6.65,2-16.11,1.51-16.63-1.3-24.49-3-31.46A26.11,26.11,0,0,1,80.3,82.78Z"/></g></g></svg>