<svg xmlns="http://www.w3.org/2000/svg" viewBox="0 0 260.47 347.25"><defs><style>.cls-1{fill:#fff;}</style></defs><title>logo</title><g id="Layer_2" data-name="Layer 2"><g id="Layer_1-2" data-name="Layer 1"><path class="cls-1" d="M6.54,44.05c3.55-.43,7.39-.43,10.94-1.28,2.13-.43,3,.43,3.27,1.71s-.29,3.26-2.56,3.4l-9.52.43c-1.84,0-2.55.71-2.55,2.56C6,60,5.69,68.9,5.55,78c-.28,14.21-.43,28.41-.71,42.61v12.64c0,1.71.28,2.56,2.7,2.56a35.27,35.27,0,0,1,10.08,1.56c1,.28,1.56,2,2.27,3-1,.57-1.84,1.71-2.84,1.71a76.44,76.44,0,0,1-8-.71c-.85-.15-1.56-.29-2.41-.43-7-.71-6.82-.71-6.54-7.95.29-6.39.29-12.79.57-19.18s.57-12.92.57-19.31c.14-9.66-.14-19.17.14-28.83.14-9.38.85-18.75,1-28.13.15-10.08-.14-20.16-.14-30.25,0-1.56-.71-3.55,0-4.4A7.36,7.36,0,0,1,7,.31C12.08,0,17.2.16,22.17,0c1.84,0,3.4.29,3.55,2.41s-1.28,3.13-3.41,3.13H6.54Z"/><path class="cls-1" d="M38.64,26.58c.14,5.68.14,11.22.28,16.76,0,2.84.28,5.68.28,8.66,0,10.65,0,21.45.15,32.24.14,7.67.85,15.48,1.13,23.29.29,9.24.43,18.61.85,27.84.15,2.42-1.13,3.41-3,3.41-.85,0-2.55-1.42-2.41-2,1.7-8.8,0-17.61-.14-26.27,0-5.83-.43-30.54-.57-34.66-.29-9.09-.14-18.18-.14-27.41,0-4.54.28-9.23.14-13.78,0-3.4-.71-6.81-.85-10.36-.29-5.4-.29-10.8-.43-16.19a12.66,12.66,0,0,0-.28-2.42c-.57-2-.57-3.69,1.7-4.26,2-.43,4-.43,5,2.27,1.85,5.12,4.4,10.23,5.82,15.48,2.7,9.66,4.83,19.46,7.11,29.26,3.26,13.64,6.67,27.27,9.79,40.91,1.85,8.52,3.13,17.18,4.69,25.7a5.16,5.16,0,0,0,1.85,3.27c0-6.39,0-12.78.14-19.18,0-3.26.57-6.67.57-10.08,0-3.83-.57-7.67-.57-11.5-.14-8.38-.14-16.62-.14-25-.14-10.93,0-21.87.14-32.67,0-5.68.14-11.22.57-16.9.14-1,1.56-2,2.27-3,.71,1,1.85,2,1.85,2.84,0,10.65-.57,21.31-.57,32q-.21,16.4,0,32.81c0,7.1.57,14.34.71,21.58v48.43c0,2.42-.71,4.12-3.27,4.41-2.27.14-4.54-2.28-4.83-4.69-.85-7.81-1.56-15.62-2.84-23.29-1.56-9.09-3.41-18-5.39-27-.57-3-1.85-6-2.56-9.09-.85-3.55-1.42-7.38-2.27-11.08-2-9.23-3.7-18.46-6-27.69-1.56-6.82-3.69-13.49-5.54-20-.57-1.84-1.56-3.55-2.27-5.25h-1Z"/><path class="cls-1" d="M117,59c-.43,8.24-1.28,16.48-2.27,24.71s-2.13,16.48-3.84,24.57c-.85,4.12-3.41,8-4.26,12.08a20.9,20.9,0,0,1-5.11,9.94c-3.41,3.69-6.82,7.24-10.37,10.65-2.13,2.13-3.41,1.14-5.4-1.14-2.41-2.69-1.42-5.11-1.27-8,.42-9.09.85-18.18,1-27.27.28-11.08.43-22.3.43-33.52.14-14.2,0-28.54.14-42.89.14-5.11.71-10.22.85-15.34a73.63,73.63,0,0,0-.43-8C86.35.31,88.2-.83,92.32.59,101.55,4,108.93,10,112.2,19.19c2.56,7.53,5.25,15.77,4.26,24.43C116.6,48.59,117.31,53.71,117,59ZM89.62,135.23c.71,0,.85-.71,1.13-1,8.38-5.53,12.64-14.06,15.34-23.15,2.28-7.66,3.13-15.9,4.55-24a100.93,100.93,0,0,0,1.28-12.92c.28-8.67,0-17.47.42-26.28s-1-17.47-3.69-26-9-13.49-17.33-16C90.75,49,90.19,92.05,89.62,135.23Z"/><path class="cls-1" d="M144.43,139.21c-.56,3.55-13.63,3.12-17.61,2.13-1.84-.43-2.27-1.57-2.27-3.27.14-3.41.29-7,.29-10.37.28-16.47.56-32.95,1-49.28.14-9.23.71-18.46.71-27.7,0-10.22-.43-20.45-.71-30.67-.14-5.4-.43-10.8-.29-16.2,0-1.27.15-3.4,2.28-3.83C130-.26,130,2.43,130,3.71c.28,13.21.42,26.42.57,39.63,0,10.37.28,20.73,0,31.1-.15,9.94-1,19.74-1,29.69,0,9.51.57,19,.71,28.68a9.12,9.12,0,0,1,.29,3.56C135.49,136.51,145.43,133.81,144.43,139.21Z"/><path class="cls-1" d="M159.91,44.05c3.55-.43,7.39-.43,10.94-1.28,2.13-.43,3,.43,3.26,1.71s-.28,3.26-2.55,3.4l-9.52.43c-1.85,0-2.56.71-2.56,2.56-.14,9.09-.42,18-.56,27.12-.29,14.21-.43,28.41-.71,42.61v12.64c0,1.71.28,2.56,2.7,2.56A35.33,35.33,0,0,1,171,137.36c1,.28,1.56,2,2.27,3-1,.57-1.85,1.71-2.84,1.71a76.19,76.19,0,0,1-7.95-.71c-.86-.15-1.56-.29-2.42-.43-7-.71-6.81-.71-6.53-7.95.28-6.39.28-12.79.57-19.18.14-6.39.57-12.92.57-19.31.14-9.66-.15-19.17.14-28.83.14-9.38.85-18.75,1-28.13.14-10.08-.14-20.16-.14-30.25,0-1.56-.71-3.55,0-4.4A7.31,7.31,0,0,1,160.34.31C165.45,0,170.56.16,175.53,0c1.85,0,3.41.29,3.55,2.41s-1.27,3.13-3.4,3.13H159.91Z"/><path class="cls-1" d="M197.54,44.76c5.4,8,11.93,15.05,16.05,24,5.54,11.65,7.24,23.72,6.53,36.5-.28,4.26.15,8.81-.28,13.07-.71,6.11-1.7,12.36-5.54,17.32-3.27,4.12-7.38,7.53-13.35,6-1.7-.43-3.27-2-4.83-3.12-4.69-3.41-6.39-8.53-7.67-13.78-.71-2.84-1-5.68-1.56-8.52-.43-1.71,0-2.84,1.85-3.13,1.7-.28,2.27.71,2.55,2.28A86.56,86.56,0,0,0,193,125.86a16.59,16.59,0,0,0,8.52,10.93c3,1.71,6,.29,8.52-3,4.26-5.54,5.54-12.07,6-18.75a120.47,120.47,0,0,0-1.7-32.81c-.85-4.68-3.41-9.09-5.25-13.63-2.56-6.39-7.25-11.22-11.37-16.48-4.4-5.82-8.37-11.93-10.08-19-.57-2.27.43-5,.71-7.38.85-5.54,1.42-11.08,2.7-16.62.71-3,2.13-6.53,4.4-8.24,1.71-1.28,5.82-1,8.1.14,5,2.28,7.24,6.82,7.52,12.36.15,1.56,1,3.13,1.28,4.69a7.48,7.48,0,0,1-.14,3.12c0,.29-1.56.57-1.85.29a14.54,14.54,0,0,1-1.27-2.56c-1.42-3.83-2.42-7.95-4.41-11.5-2.27-4.41-5-4-7.95-.15-3.41,4.26-3.27,9.38-4,14.21a72.71,72.71,0,0,0-.85,9.65C191.58,36.52,194.7,40.5,197.54,44.76Z"/><path class="cls-1" d="M237.73,44.76c5.4,8,11.93,15.05,16.05,24,5.54,11.65,7.24,23.72,6.53,36.5-.28,4.26.15,8.81-.28,13.07-.71,6.11-1.7,12.36-5.54,17.32-3.27,4.12-7.38,7.53-13.35,6-1.7-.43-3.27-2-4.83-3.12-4.69-3.41-6.39-8.53-7.67-13.78-.71-2.84-1-5.68-1.56-8.52-.43-1.71,0-2.84,1.85-3.13,1.7-.28,2.27.71,2.55,2.28a86.56,86.56,0,0,0,1.71,10.51,16.59,16.59,0,0,0,8.52,10.93c3,1.71,6,.29,8.52-3,4.26-5.54,5.54-12.07,6-18.75a120.47,120.47,0,0,0-1.7-32.81c-.85-4.68-3.41-9.09-5.25-13.63-2.56-6.39-7.25-11.22-11.37-16.48-4.4-5.82-8.38-11.93-10.08-19-.57-2.27.43-5,.71-7.38.85-5.54,1.42-11.08,2.7-16.62.71-3,2.13-6.53,4.4-8.24,1.71-1.28,5.82-1,8.1.14,5,2.28,7.24,6.82,7.52,12.36.15,1.56,1,3.13,1.28,4.69a7.48,7.48,0,0,1-.14,3.12c0,.29-1.56.57-1.85.29a14.54,14.54,0,0,1-1.27-2.56c-1.42-3.83-2.42-7.95-4.41-11.5-2.27-4.41-5-4-8-.15-3.41,4.26-3.27,9.38-4,14.21a72.71,72.71,0,0,0-.85,9.65C231.77,36.52,234.89,40.5,237.73,44.76Z"/><path class="cls-1" d="M10.8,249.94c5.4,8,11.93,15.06,16.05,24,5.54,11.64,7.25,23.71,6.54,36.5-.29,4.26.14,8.8-.29,13.06-.71,6.11-1.7,12.36-5.54,17.33-3.26,4.12-7.38,7.53-13.35,6-1.7-.43-3.26-2-4.83-3.13C4.7,340.27,3,335.16,1.71,329.9c-.71-2.84-1-5.68-1.56-8.52-.42-1.7,0-2.84,1.85-3.12s2.27.71,2.56,2.27A84.64,84.64,0,0,0,6.26,331,16.66,16.66,0,0,0,14.78,342c3,1.7,6,.28,8.52-3,4.26-5.53,5.54-12.07,6-18.74a120.85,120.85,0,0,0-1.71-32.81c-.85-4.69-3.41-9.09-5.25-13.63-2.56-6.4-7.25-11.23-11.36-16.48-4.41-5.82-8.38-11.93-10.09-19-.57-2.27.43-5,.71-7.39.85-5.54,1.42-11.08,2.7-16.61.71-3,2.13-6.54,4.4-8.24,1.71-1.28,5.83-1,8.1.14,5,2.27,7.24,6.82,7.53,12.36.14,1.56,1,3.12,1.27,4.68a7.53,7.53,0,0,1-.14,3.13c0,.28-1.56.57-1.84.28a13.82,13.82,0,0,1-1.28-2.55c-1.42-3.84-2.42-8-4.4-11.51-2.28-4.4-5-4-8-.14-3.41,4.26-3.26,9.37-4,14.2a72.86,72.86,0,0,0-.86,9.66C4.84,241.71,8,245.68,10.8,249.94Z"/><path class="cls-1" d="M66.05,264.72c.14-5.12-.29-10.09-.15-15.06.15-5.54.57-10.94.86-16.47.28-7.39.56-14.92.71-22.44,0-2,.28-3.7,2.84-3.56s2.7,1.71,2.55,4c-.56,7.53-.85,15.06-1.27,22.58-.57,11.08-1.14,22.16-1.57,33.1-.56,13.06-1,26.13-1.7,39.19-.28,5.26-1,10.51-1.56,15.63a130.6,130.6,0,0,1-2,12.92,52.32,52.32,0,0,1-3.27,10.09c-1.56,3.26-8.66,3.4-10.65.28-3.83-5.68-4.4-12.36-5.25-18.75-1.14-9.51-2.14-18.89-2.56-28.4-.29-8.52.57-17.19.85-25.85.14-7.67,0-15.34.14-23,0-2.41.43-4.83.43-7.24.14-8.81.28-17.61.43-26.56,0-2.13-.43-4.4-.29-6.54.14-1.13-.14-3.4,2-3.4s2.13,2.13,2.13,3.12c0,12.5-.28,25-.43,37.35,0,7.11,0,14.06-.14,21C48,277.36,47,288,47.73,298.52c.71,11.5.71,23,4,34.37.71,2.41.43,5.39,2.13,7.67a27.69,27.69,0,0,1,2,2.13c.71-.71,1.71-1.28,2-2.13,1.56-5.54,3.69-11.08,4.4-16.76,1.42-10.09,1.85-20.17,2.7-30.4.14-1.7,0-3.4,0-5.11h-.14C65.2,280.48,65.76,272.53,66.05,264.72Z"/><path class="cls-1" d="M111.63,213.44c.57-1.7,1-3.69,1.71-5.39.42-1,1.84-2.56,2.41-2.42,1.28.43,3,1.42,3.41,2.7a19.41,19.41,0,0,1,1,6.39c.15,5.54-.28,11.22-.14,16.76.29,10.51.71,21.16,1.28,31.67.43,9.38.85,18.61,1.56,27.84.57,7.95,1.57,15.76,1.85,23.72.43,8.66.28,17.47.28,26.27a6.61,6.61,0,0,0,.15,2.42c.85,2.27-.57,3.69-2.14,3.83-1.84.14-3.12-1.28-3-3.55a98.7,98.7,0,0,0,.71-11.36c-.14-8.95-.71-18-1.13-27-.15-2.84-.43-5.53-.57-8.37a83.09,83.09,0,0,1-.14-10.37c.28-3.41-.29-6.82-.57-10.23-.29-4-.85-7.81-1.14-11.64-.57-6.54-1-13.21-1.42-19.89-.28-6.53-.42-13.21-.57-19.88,0-1.42.15-3,.29-4.55-.43,0-.85-.14-1.14-.14-1.7,5.26-3.55,10.51-5,15.91-1.28,4.83-2,9.94-3.27,14.91-.42,2-1.56,3.83-4,4-2.56.28-3.13-1.57-3.55-3.69-.85-4.55-1.85-9.24-3-13.78-.42-2.13-1.56-4.12-2.27-6.25-1.13-3.84-2.13-8-3.26-11.79a2.55,2.55,0,0,0-1.71-1.7v12.78c.14,7.38.29,14.63.29,22,.14,13.07-.15,26.28,0,39.34,0,9.09.14,18,.42,27.13.28,7.1,1.14,14.06,1.42,21.16a4.47,4.47,0,0,1-2.7,3.27c-1.84.57-2.7-.85-2.7-2.7,0-10.22-.28-20.31-.42-30.53-.14-6.82-.43-13.78-.43-20.6,0-8.66.29-17.18.29-25.71-.15-11.36-.57-22.86-.71-34.22-.15-4.83.28-9.52.14-14.35,0-2.13-.71-4.12-.57-6.1.14-1.42.85-3.27,1.85-3.7,1.42-.57,3.41-1,4.26,1.42,2.41,7.1,5.11,14.21,7.52,21.17,1.14,3.4,2.14,6.81,3,10.08.71,2.27,1.13,4.54,1.84,7.53C105.24,234.61,108.37,224.1,111.63,213.44Z"/><path class="cls-1" d="M164.46,213.44c.57-1.7,1-3.69,1.71-5.39.42-1,1.84-2.56,2.41-2.42,1.28.43,3,1.42,3.41,2.7a19.41,19.41,0,0,1,1,6.39c.14,5.54-.28,11.22-.14,16.76.28,10.51.71,21.16,1.28,31.67.42,9.38.85,18.61,1.56,27.84.57,7.95,1.56,15.76,1.85,23.72.42,8.66.28,17.47.28,26.27a6.84,6.84,0,0,0,.14,2.42c.86,2.27-.56,3.69-2.13,3.83-1.84.14-3.12-1.28-3-3.55a101,101,0,0,0,.71-11.36c-.14-8.95-.71-18-1.14-27-.14-2.84-.42-5.53-.56-8.37a83.07,83.07,0,0,1-.15-10.37c.29-3.41-.28-6.82-.56-10.23-.29-4-.86-7.81-1.14-11.64-.57-6.54-1-13.21-1.42-19.89s-.43-13.21-.57-19.88c0-1.42.14-3,.29-4.55-.43,0-.86-.14-1.14-.14-1.71,5.26-3.55,10.51-5,15.91-1.28,4.83-2,9.94-3.27,14.91-.42,2-1.56,3.83-4,4s-3.12-1.57-3.55-3.69c-.85-4.55-1.84-9.24-3-13.78-.42-2.13-1.56-4.12-2.27-6.25-1.14-3.84-2.13-8-3.27-11.79a2.51,2.51,0,0,0-1.7-1.7v12.78c.14,7.38.28,14.63.28,22,.14,13.07-.14,26.28,0,39.34,0,9.09.14,18,.43,27.13.28,7.1,1.13,14.06,1.42,21.16a4.47,4.47,0,0,1-2.7,3.27c-1.85.57-2.7-.85-2.7-2.7,0-10.22-.28-20.31-.42-30.53-.15-6.82-.43-13.78-.43-20.6,0-8.66.28-17.18.28-25.71-.14-11.36-.56-22.86-.71-34.22-.14-4.83.29-9.52.15-14.35,0-2.13-.71-4.12-.57-6.1.14-1.42.85-3.27,1.84-3.7,1.42-.57,3.41-1,4.26,1.42,2.42,7.1,5.12,14.21,7.53,21.17,1.14,3.4,2.13,6.81,3,10.08.7,2.27,1.13,4.54,1.84,7.53C158.07,234.61,161.19,224.1,164.46,213.44Z"/><path class="cls-1" d="M195.56,249.23c3.55-.42,7.38-.42,10.93-1.27,2.13-.43,3,.42,3.27,1.7s-.28,3.27-2.56,3.41l-9.51.42c-1.85,0-2.56.72-2.56,2.56-.14,9.09-.42,18-.57,27.13-.28,14.2-.42,28.4-.71,42.61v12.64c0,1.7.29,2.55,2.7,2.55a35.36,35.36,0,0,1,10.09,1.57c1,.28,1.56,2,2.27,3-1,.57-1.85,1.7-2.84,1.7a73.75,73.75,0,0,1-8-.71l-2.41-.42c-7-.71-6.82-.71-6.53-8,.28-6.39.28-12.78.57-19.17.14-6.39.56-12.93.56-19.32.15-9.65-.14-19.17.15-28.83.14-9.37.85-18.75,1-28.12.14-10.08-.14-20.17-.14-30.25,0-1.56-.71-3.55,0-4.4a7.32,7.32,0,0,1,4.68-2.56c5.12-.28,10.23-.14,15.2-.28,1.85,0,3.41.28,3.55,2.41s-1.28,3.13-3.41,3.13H195.56Z"/><path class="cls-1" d="M256.48,344a20.07,20.07,0,0,1-.42-2.84c-1.71-6.68-3.41-13.35-5.12-20.17-2.27-8.95-4.4-18-6.81-27-2.42-9.23-5.26-18.46-8-27.69-1.13-4.12-2.41-8.24-3.69-12.5l3-1.71a2.93,2.93,0,0,0,1-.85A33.24,33.24,0,0,0,248.25,241v0c4.49-5.73,5.42-8.3,4.24-13.1a12.89,12.89,0,0,0-.37-2.12,5,5,0,0,0-.7-1.53v0c-3.27-9.23-11.74-15.12-21-18.52-2-.69-3.43-.76-4.39-.16h0v0a2.57,2.57,0,0,0-1,1.24,3,3,0,0,0-1,1.47c-.14,8.52,0,17-.43,25.71-.14,5.11-1.27,10.22-1.27,15.34-.15,8.38.42,16.76.42,25.14,0,8.66-.42,17.18-.42,25.84,0,6.82.28,13.5.42,20.31.29,7.53.57,15.2.43,22.87,0,2.41,1,3.41,3.26,3.41,2.42,0,2.14-1.71,2-3.55-.57-6.39-1.13-12.78-1.27-19.32-.15-4.4.42-8.95.42-13.35,0-2.84-.57-5.68-.57-8.52-.14-6.39-.14-12.78-.14-19.17,0-7.53.14-15.06.14-22.44a11.49,11.49,0,0,1,.43-2.13A114.21,114.21,0,0,1,233.33,274c2.7,9.37,5.26,18.89,8,28.26,2.55,9.09,5.25,18.18,7.52,27.41a128,128,0,0,1,2.56,14.77c.28,2.13,1.28,3,3.27,2.84S256.77,345.53,256.48,344Zm-29.4-93.32c.57-12.64,1-25.28,1.57-37.92a9.19,9.19,0,0,1,2.13-1.24c7.74,2.67,14,7.57,16.61,15.71a22.63,22.63,0,0,1,.47,6.45C247.3,239.9,232.91,249.66,227.08,250.65Z"/><path class="cls-1" d="M142.36,165.23c-3.71-2.61-8.16-2.5-12.36-3a68.32,68.32,0,0,0-8.41-.65c-4.7-.22-8.16,2.17-11.87,4.34-6.93,4.13-13.11,9.12-20.9,12.27-10.14,4.23-20.65,5.54-31.78,5-3.71-.21-7.67.11-11.38-.21-4.78-.49-9.66-1.15-13.74-3.41a1.62,1.62,0,0,1-.69-2.15h0a2.09,2.09,0,0,1,2.81-.81c4.4,2.37,9.38,3.15,14.47,3.44a119.48,119.48,0,0,0,28.56-1.31c4.08-.65,7.91-2.6,11.87-4,5.57-2,9.77-5.54,14.35-8.69,5.07-3.37,10.38-6.41,16.57-7.71,2-.44,4.32.32,6.42.54,4.83.65,9.65,1.09,14.47,2.06a15,15,0,0,1,7.17,3.37C151,166.57,146.07,167.83,142.36,165.23Z"/><path class="cls-1" d="M76,185.91c1.55-.86,9-1.83,13-3.24,5.57-2,9.77-5.54,14.35-8.69,5.07-3.36,10.38-6.4,16.57-7.71a30.35,30.35,0,0,1,7.69-.13c4.82.65,11.18,2.35,11.18,2.94s-1.53.36-3.13.2-5.52-1-5.82-1.07a66.8,66.8,0,0,0-7.42-.42c-4.7-.21-9.48,3.12-13.18,5.29-6.33,3.77-10.39,7-17.26,10.18a44.28,44.28,0,0,1-8.35,2S74.48,186.72,76,185.91Z"/><path class="cls-1" d="M120.78,179.07c3.71,2.6,8.16,2.5,12.36,3a72.3,72.3,0,0,0,8.41.65c4.7.22,8.16-2.17,11.87-4.34,6.93-4.13,13.11-9.13,20.9-12.27,10.14-4.24,20.65-5.54,31.78-5,3.71.22,7.67-.11,11.37.22,4.79.49,9.66,1.15,13.75,3.41a1.61,1.61,0,0,1,.69,2.14h0a2.09,2.09,0,0,1-2.81.82c-4.4-2.37-9.39-3.16-14.47-3.44a119.45,119.45,0,0,0-28.56,1.3c-4.08.65-7.92,2.61-11.87,4-5.57,2-9.77,5.54-14.35,8.69-5.07,3.36-10.39,6.4-16.57,7.71-2,.43-4.33-.33-6.43-.54-4.82-.66-9.64-1.09-14.46-2.07a14.91,14.91,0,0,1-7.18-3.36C112.15,177.72,117.07,176.46,120.78,179.07Z"/><path class="cls-1" d="M187.16,158.39c-1.56.85-9,1.82-13,3.24-5.57,2-9.77,5.53-14.35,8.68-5.07,3.37-10.39,6.41-16.57,7.71a30.36,30.36,0,0,1-7.69.14c-4.82-.66-11.18-2.36-11.18-2.94s1.53-.37,3.13-.21,5.52,1,5.81,1.08a67,67,0,0,0,7.42.41c4.7.22,9.48-3.11,13.19-5.29,6.33-3.77,10.39-7,17.26-10.18a44.34,44.34,0,0,1,8.34-1.94S188.65,157.57,187.16,158.39Z"/></g></g></svg>